<svg width="40" height="40" viewBox="0 0 40 40" fill="none" xmlns="http://www.w3.org/2000/svg">
<path d="M25.0307 20.5307L17.5307 28.0307C17.461 28.1004 17.3783 28.1556 17.2872 28.1933C17.1962 28.2311 17.0986 28.2505 17.0001 28.2505C16.9015 28.2505 16.8039 28.2311 16.7129 28.1933C16.6218 28.1556 16.5391 28.1004 16.4694 28.0307C16.3997 27.961 16.3445 27.8783 16.3068 27.7872C16.269 27.6962 16.2496 27.5986 16.2496 27.5001C16.2496 27.4015 16.269 27.3039 16.3068 27.2129C16.3445 27.1218 16.3997 27.0391 16.4694 26.9694L23.4397 20.0001L16.4694 13.0307C16.3287 12.8899 16.2496 12.6991 16.2496 12.5001C16.2496 12.301 16.3287 12.1102 16.4694 11.9694C16.6102 11.8287 16.801 11.7496 17.0001 11.7496C17.1991 11.7496 17.3899 11.8287 17.5307 11.9694L25.0307 19.4694C25.1004 19.5391 25.1557 19.6218 25.1935 19.7128C25.2312 19.8039 25.2506 19.9015 25.2506 20.0001C25.2506 20.0986 25.2312 20.1962 25.1935 20.2873C25.1557 20.3783 25.1004 20.461 25.0307 20.5307Z" fill="#003F33"/>
</svg>
