<svg width="24" height="24" viewBox="0 0 24 24" fill="none" xmlns="http://www.w3.org/2000/svg">
<g clip-path="url(#clip0_4047_21)">
<path d="M21.4782 20.4693L16.7841 15.7762C18.1446 14.1428 18.8231 12.0478 18.6783 9.92691C18.5335 7.80604 17.5766 5.82265 16.0067 4.38932C14.4368 2.95599 12.3747 2.18308 10.2495 2.23138C8.1242 2.27968 6.09938 3.14547 4.59621 4.64864C3.09304 6.15181 2.22725 8.17663 2.17895 10.3019C2.13065 12.4271 2.90356 14.4892 4.33689 16.0591C5.77022 17.629 7.75361 18.5859 9.87448 18.7307C11.9953 18.8755 14.0904 18.1971 15.7238 16.8365L20.4169 21.5306C20.4866 21.6003 20.5693 21.6556 20.6604 21.6933C20.7514 21.731 20.849 21.7504 20.9475 21.7504C21.0461 21.7504 21.1437 21.731 21.2347 21.6933C21.3258 21.6556 21.4085 21.6003 21.4782 21.5306C21.5479 21.4609 21.6031 21.3782 21.6408 21.2871C21.6785 21.1961 21.698 21.0985 21.698 21C21.698 20.9014 21.6785 20.8038 21.6408 20.7128C21.6031 20.6218 21.5479 20.539 21.4782 20.4693ZM3.69754 10.5C3.69754 9.16495 4.09342 7.8599 4.83512 6.74987C5.57682 5.63984 6.63103 4.77467 7.86443 4.26378C9.09783 3.75289 10.455 3.61922 11.7644 3.87967C13.0738 4.14012 14.2765 4.78299 15.2205 5.727C16.1645 6.671 16.8074 7.87374 17.0678 9.18311C17.3283 10.4925 17.1946 11.8497 16.6837 13.0831C16.1728 14.3165 15.3077 15.3707 14.1976 16.1124C13.0876 16.8541 11.7826 17.25 10.4475 17.25C8.65794 17.248 6.9422 16.5362 5.67676 15.2708C4.41132 14.0053 3.69953 12.2896 3.69754 10.5Z" fill="#8E8A85"/>
</g>
<defs>
<clipPath id="clip0_4047_21">
<rect width="24" height="24" fill="white"/>
</clipPath>
</defs>
</svg>
