<svg width="40" height="40" viewBox="0 0 40 40" fill="none" xmlns="http://www.w3.org/2000/svg">
<rect width="40" height="40" rx="20" fill="#006FCF"/>
<rect x="11.6666" y="5.83325" width="28.3333" height="28.3333" fill="white"/>
<path fill-rule="evenodd" clip-rule="evenodd" d="M11.6666 5.83325V34.1666H39.9999V29.6771H36.5818L34.8219 27.7311L33.0532 29.6771H21.7832V20.6078H18.1457L22.6576 10.3969H27.0088L28.5621 13.895V10.3969H33.9483L34.8834 13.0329L35.8247 10.3969H39.9999V5.83325H11.6666ZM36.6696 11.5324L34.8911 16.4711L33.124 11.5324H29.7371V19.4616H31.8779V13.9111L33.917 19.4616H35.82L37.8589 13.8997V19.4616H39.9999V11.5324H36.6696ZM23.4504 11.5324L19.9501 19.4616H22.3289L22.986 17.8758H26.6333L27.3017 19.4616H29.7371L26.2371 11.5324H23.4504ZM24.8097 13.5034L25.8858 16.0974H23.7334L24.8097 13.5034ZM37.2027 20.6123L34.8807 23.1498L32.581 20.6123H29.7379L33.4759 24.577L29.7379 28.5417H32.5018L34.8353 25.9816L37.1575 28.5417H39.9999L36.2399 24.5543L39.9999 20.6123H37.2027ZM22.9866 20.6123V28.5417H29.7376V26.7066H25.1502V25.4719H29.6244V23.682H25.1502V22.4475H29.7376V20.6123H22.9866ZM37.8225 24.5576L39.9998 26.8741V22.2605L37.8225 24.5576Z" fill="#006FCF"/>
</svg>
