<svg width="40" height="40" viewBox="0 0 40 40" fill="none" xmlns="http://www.w3.org/2000/svg">
<path d="M0 20C0 8.95431 8.95431 0 20 0C31.0457 0 40 8.95431 40 20C40 31.0457 31.0457 40 20 40C8.95431 40 0 31.0457 0 20Z" fill="#F1F1EC"/>
<path d="M6 6.77778C6 6.34822 6.34822 6 6.77778 6H33.2222C33.6518 6 34 6.34822 34 6.77778V33.2222C34 33.6518 33.6518 34 33.2222 34H6.77778C6.34822 34 6 33.6518 6 33.2222V6.77778Z" fill="#F36719"/>
<path d="M6.30737 6.9215V33.0779C6.30737 33.4168 6.58318 33.6926 6.92215 33.6926H18.93C26.4923 33.6926 32.6229 27.5621 32.6229 19.9997C32.6229 12.4373 26.4923 6.30673 18.93 6.30673H6.92215C6.58318 6.30673 6.30737 6.58255 6.30737 6.9215Z" fill="white"/>
<path d="M31.1422 18.3035H31.1284V18.2157H31.143C31.1825 18.2157 31.2032 18.23 31.2032 18.2588C31.2032 18.2886 31.1822 18.3035 31.1422 18.3035ZM31.2834 18.2578C31.2834 18.1909 31.2371 18.1543 31.1562 18.1543H31.0486V18.4897H31.1284V18.3596L31.2223 18.4897H31.3203L31.21 18.3514C31.257 18.3387 31.2834 18.3042 31.2834 18.2578Z" fill="#211D1D"/>
<path d="M23.4797 20.6138L24.5071 18.0581H25.3118L23.6682 21.9614H23.2688L21.6545 18.0581H22.4651L23.4797 20.6138ZM13.1721 17.9946C13.5891 17.9946 13.971 18.1384 14.2903 18.4175L13.9026 18.9253C13.7093 18.7086 13.5263 18.6178 13.304 18.6177C12.9841 18.6177 12.7502 18.7999 12.7502 19.0396C12.7504 19.2449 12.8821 19.3534 13.3274 19.5181C14.1716 19.827 14.4211 20.1007 14.4211 20.7056C14.4211 21.442 13.88 21.9546 13.1086 21.9546C12.544 21.9545 12.1332 21.7319 11.7913 21.23L12.2708 20.769C12.4416 21.0995 12.7276 21.2759 13.0813 21.2759C13.4123 21.2758 13.6573 21.0478 13.6575 20.7397C13.6575 20.5799 13.583 20.4419 13.4348 20.3452C13.3601 20.2995 13.2121 20.2316 12.9221 20.1294C12.225 19.8784 11.9856 19.6098 11.9856 19.0854C11.9856 18.463 12.499 17.9948 13.1721 17.9946ZM16.6819 17.9722C17.0012 17.9722 17.2693 18.0404 17.595 18.2056V19.0796C17.2867 18.7777 17.0181 18.6509 16.6643 18.6509C15.9682 18.6509 15.4203 19.2271 15.4202 19.9575C15.4202 20.7281 15.9509 21.27 16.6985 21.27C17.0349 21.27 17.2982 21.1509 17.595 20.854V21.728C17.2575 21.8866 16.9836 21.9487 16.6643 21.9487C15.534 21.9487 14.6555 21.0817 14.6555 19.9634C14.6556 18.8569 15.5575 17.9722 16.6819 17.9722ZM8.38599 18.0581C9.58943 18.0582 10.4279 18.8405 10.428 19.9634C10.428 20.5232 10.1716 21.0649 9.73755 21.4243C9.37239 21.7277 8.95611 21.8627 8.38013 21.8628H7.29614V18.0581H8.38599ZM11.512 21.8628H10.7698V18.0581H11.512V21.8628ZM27.7532 18.7026H26.3899V19.5474H27.7024V20.1919H26.3899V21.2192H27.7532V21.8628H25.6477V18.0581H27.7532V18.7026ZM29.345 18.0581C30.2007 18.0582 30.6915 18.4691 30.6917 19.1812C30.6917 19.764 30.3838 20.1465 29.8245 20.2603L31.0227 21.8628H30.1096L29.0823 20.3345H28.9856V21.8628H28.2444V18.0581H29.345ZM8.03735 21.2192H8.23657C8.71583 21.2192 9.01904 21.1269 9.2522 20.9165C9.50905 20.6881 9.66333 20.3228 9.66333 19.9575C9.66324 19.5931 9.50898 19.2387 9.2522 19.0103C9.00711 18.7884 8.71562 18.7026 8.23657 18.7026H8.03735V21.2192ZM28.9856 19.8101H29.2024C29.6763 19.8101 29.928 19.6037 29.928 19.2212C29.9278 18.851 29.6764 18.6577 29.2141 18.6577H28.9856V19.8101ZM31.1721 18.0288C31.3307 18.0288 31.461 18.1608 31.4612 18.3208C31.4612 18.4818 31.3309 18.6138 31.1721 18.6138C31.0108 18.6138 30.8801 18.4833 30.8801 18.3208C30.8803 18.1585 31.0094 18.0288 31.1721 18.0288ZM31.1711 18.0815C31.0419 18.0815 30.9377 18.1881 30.9377 18.3218C30.9378 18.4549 31.0429 18.562 31.1711 18.562C31.2988 18.5619 31.4025 18.4536 31.4026 18.3218C31.4026 18.1907 31.2988 18.0817 31.1711 18.0815Z" fill="#211D1D"/>
<circle cx="19.8441" cy="19.9394" r="2.01536" fill="#F36719"/>
</svg>
