<svg width="40" height="40" viewBox="0 0 40 40" fill="none" xmlns="http://www.w3.org/2000/svg">
<path d="M0 20C0 8.95431 8.95431 0 20 0C31.0457 0 40 8.95431 40 20C40 31.0457 31.0457 40 20 40C8.95431 40 0 31.0457 0 20Z" fill="#F1F1EC"/>
<rect x="15.2686" y="12.7643" width="10.2976" height="14.1589" fill="#7673C0"/>
<path d="M16.9697 19.846C16.9675 17.0817 18.2365 14.4698 20.4111 12.7631C16.7168 9.85985 11.4118 10.2827 8.22411 13.7345C5.03646 17.1863 5.03646 22.5082 8.22411 25.96C11.4118 29.4118 16.7168 29.8346 20.4111 26.9314C18.2358 25.2241 16.9667 22.6112 16.9697 19.846Z" fill="#EB001B"/>
<path d="M34.9948 19.8448C34.9947 23.2942 33.0252 26.4407 29.9226 27.948C26.82 29.4553 23.129 29.0589 20.4174 26.927C22.5907 25.219 23.8597 22.6078 23.8597 19.8436C23.8597 17.0794 22.5907 14.4682 20.4174 12.7602C23.129 10.6283 26.82 10.2318 29.9226 11.7392C33.0252 13.2465 34.9947 16.393 34.9948 19.8423V19.8448Z" fill="#00A1DF"/>
<path fill-rule="evenodd" clip-rule="evenodd" d="M35.0001 24.6085V24.9362H34.9415V24.6881L34.8503 24.9011H34.7871L34.6958 24.6881V24.9362H34.635V24.6085H34.7192L34.8175 24.8426L34.9158 24.6085H35.0001ZM34.4595 24.6648V24.9363H34.408V24.6648H34.298V24.6087H34.5765V24.6648H34.4595Z" fill="#00A1DF"/>
</svg>
