<svg width="40" height="40" viewBox="0 0 40 40" fill="none" xmlns="http://www.w3.org/2000/svg">
<path d="M0 20C0 8.95431 8.95431 0 20 0C31.0457 0 40 8.95431 40 20C40 31.0457 31.0457 40 20 40C8.95431 40 0 31.0457 0 20Z" fill="#F1F1EC"/>
<rect x="14.6362" y="12.1425" width="11.4265" height="15.7115" fill="#FF5F00"/>
<path d="M16.5239 20.0005C16.5215 16.933 17.9296 14.0348 20.3426 12.1409C16.2433 8.91932 10.3567 9.38857 6.81953 13.2189C3.28241 17.0492 3.28241 22.9545 6.81953 26.7848C10.3567 30.6151 16.2433 31.0844 20.3426 27.8628C17.9289 25.9683 16.5206 23.0689 16.5239 20.0005Z" fill="#EB001B"/>
<path d="M36.5252 19.9996C36.5251 23.8271 34.3396 27.3186 30.8968 28.9913C27.4541 30.6639 23.3585 30.2239 20.3495 27.8583C22.7612 25.963 24.1693 23.0655 24.1693 19.9982C24.1693 16.9309 22.7612 14.0334 20.3495 12.1381C23.3585 9.77245 27.4541 9.33252 30.8968 11.0051C34.3396 12.6777 36.5251 16.1693 36.5252 19.9968V19.9996Z" fill="#F79E1B"/>
<path fill-rule="evenodd" clip-rule="evenodd" d="M36.531 25.2855V25.6491H36.4661V25.3738L36.3648 25.6101H36.2947L36.1934 25.3738V25.6491H36.1259V25.2855H36.2194L36.3284 25.5452L36.4375 25.2855H36.531ZM35.931 25.3479V25.6491H35.8739V25.3479H35.7518V25.2855H36.0609V25.3479H35.931Z" fill="#F79E1B"/>
</svg>
